<svg xmlns="http://www.w3.org/2000/svg"><style>:root svg:not(:target){display:none}</style><svg viewBox="0 0 30 42" fill="none" id="abonements-rub"><path fill-rule="evenodd" clip-rule="evenodd" d="M0 17h6v6h-6v-6Z" fill="#102654"></path><path fill-rule="evenodd" clip-rule="evenodd" d="M3.66 28.32v-10.32h6v10.32h11.34v6h-11.34v7.68h-6v-7.68h-3.66v-6h3.66Z" fill="#102654"></path><path fill-rule="evenodd" clip-rule="evenodd" d="M18.5 6h-8.5v11h8.5a5.5 5.5 0 1 0 0-11Zm-14.5-6v23h14.5a11.5 11.5 0 1 0 0-23h-14.5Z" fill="#102654"></path></svg><svg viewBox="0 0 13 15" fill="none" id="button-play-triangle"><path d="m13 7.5-12.75 7.36v-14.72l12.75 7.36Z" fill="currentColor"></path></svg><svg viewBox="0 0 10 17" fill="none" id="footer-social-odnoklassniki"><path d="M4.68 2.89c.9 0 1.63.75 1.63 1.68 0 .93-.73 1.68-1.63 1.68-.9 0-1.63-.75-1.63-1.68 0-.93.73-1.68 1.63-1.68Zm0 5.74a4 4 0 0 0 3.94-4.06 4 4 0 0 0-3.94-4.06 4 4 0 0 0-3.93 4.06 4 4 0 0 0 3.93 4.06Zm1.6 3.31a7.3 7.3 0 0 0 2.28-.97c.53-.35.7-1.09.36-1.64a1.13 1.13 0 0 0-1.6-.38 4.87 4.87 0 0 1-5.29 0 1.13 1.13 0 0 0-1.59.38c-.34.55-.17 1.29.36 1.64a7.3 7.3 0 0 0 2.29.97l-2.2 2.27a1.22 1.22 0 0 0 0 1.68 1.14 1.14 0 0 0 1.63 0l2.16-2.23 2.16 2.23c.45.47 1.18.47 1.63 0 .45-.46.45-1.21 0-1.68l-2.2-2.27Z" fill="currentColor"></path></svg><svg viewBox="0 0 15 15" fill="none" id="footer-social-reddit"><path d="M8.85.56c-.44 0-.86.22-1.13.55a2.7 2.7 0 0 0-.52 1.14 9.43 9.43 0 0 0-.24 2.1 7.32 7.32 0 0 0-3.33 1.02 2 2 0 0 0-1.28-.5c-.5 0-.98.23-1.33.67-.68.85-.6 2.24.18 3.06-.05.26-.08.52-.08.78 0 2.8 2.86 5.06 6.38 5.06 3.53 0 6.38-2.26 6.38-5.06 0-.26-.03-.52-.08-.78.78-.82.86-2.21.18-3.06a1.7 1.7 0 0 0-1.33-.67 2 2 0 0 0-1.28.5 7.31 7.31 0 0 0-3.31-1.03 8.4 8.4 0 0 1 .18-1.75c.08-.3.17-.52.27-.65.1-.12.17-.17.34-.17.36 0 .4.12.63.4.1.15.23.32.43.5.2.17.5.32.83.32v-1.22c-.09 0-.1 0-.17-.05-.06-.06-.14-.18-.27-.35-.25-.32-.73-.81-1.45-.81Zm3.51.11c-.84 0-1.52.77-1.52 1.71 0 .95.68 1.71 1.52 1.71s1.52-.76 1.52-1.7c0-.95-.68-1.72-1.52-1.72Zm0 .6c.54 0 .98.5.98 1.11 0 .61-.44 1.1-.98 1.1s-.98-.49-.98-1.1c0-.6.44-1.1.98-1.1Zm-4.86 4.02c3 0 5.52 1.88 5.52 4.1 0 2.21-2.53 4.08-5.52 4.08-3 0-5.52-1.87-5.52-4.09 0-2.21 2.53-4.09 5.52-4.09Zm-5.13.55c.15 0 .3.05.45.12-.54.46-.97 1-1.26 1.6-.2-.47-.15-1.06.1-1.37a.88.88 0 0 1 .7-.35Zm10.26 0c.28 0 .53.12.71.35.25.3.3.9.1 1.37a4.94 4.94 0 0 0-1.26-1.6c.15-.07.3-.11.45-.12Zm-7.3 1.53c-.53 0-.97.5-.97 1.1 0 .6.44 1.1.98 1.1s.98-.5.98-1.1c0-.6-.44-1.1-.98-1.1Zm4.33 0c-.54 0-.98.5-.98 1.1 0 .6.44 1.1.98 1.1s.98-.5.98-1.1c0-.6-.44-1.1-.98-1.1Zm-4.84 3.75c.34.8 1.4 1.57 2.68 1.57 1.28 0 2.36-.77 2.7-1.57-.62.45-1.6.76-2.7.76s-2.06-.31-2.68-.77Z" fill="currentColor"></path></svg><svg viewBox="0 0 13 8" fill="none" id="footer-social-vk"><path d="M7.72 6.05c.45-.14 1.01.95 1.62 1.36.45.32.8.25.8.25l1.6-.02s.84-.06.45-.72c-.04-.06-.24-.5-1.2-1.4-1-.95-.87-.8.34-2.43.74-1 1.04-1.6.94-1.87-.08-.25-.63-.18-.63-.18l-1.8.01c-.19 0-.34.06-.4.24 0 0-.3.77-.67 1.43-.8 1.38-1.13 1.45-1.26 1.37-.31-.2-.23-.8-.23-1.24 0-1.34.2-1.9-.4-2.04a3.1 3.1 0 0 0-.84-.09c-.65 0-1.2 0-1.5.16-.2.1-.37.33-.27.34.12.02.39.07.53.27.19.26.18.83.18.83s.11 1.58-.25 1.77c-.24.14-.58-.14-1.3-1.4-.36-.63-.64-1.35-.64-1.35s-.05-.13-.15-.2a.67.67 0 0 0-.28-.11h-1.72s-.26.02-.35.13c-.08.1 0 .3 0 .3s1.34 3.2 2.86 4.8c1.4 1.47 3 1.38 3 1.38h.71s.22-.03.33-.15c.1-.1.1-.32.1-.32s-.01-.97.43-1.12Z" fill="currentColor"></path></svg><svg viewBox="0 0 18 34" fill="none" id="swiper-arrow"><path d="m17 1-16 16 16 16" stroke="#102654"></path></svg></svg>